<?xml version="1.0" encoding="UTF-8"?>
<svg id="Layer_1" data-name="Layer 1" xmlns="http://www.w3.org/2000/svg" viewBox="0 0 415.42 506.24">
  <defs>
    <style>
      .cls-1 {
        stroke-linecap: round;
      }

      .cls-1, .cls-2, .cls-3 {
        stroke-width: 3px;
      }

      .cls-1, .cls-2, .cls-3, .cls-4, .cls-5 {
        fill: none;
        stroke: #1d1d1b;
      }

      .cls-1, .cls-2, .cls-4 {
        stroke-miterlimit: 10;
      }

      .cls-6 {
        fill: #f7ae7d;
      }

      .cls-7 {
        fill: #fff;
      }

      .cls-8 {
        fill: #322158;
      }

      .cls-9 {
        fill: #ad9ccb;
      }

      .cls-10 {
        fill: #1d1d1b;
      }

      .cls-11 {
        fill: #4b302f;
      }

      .cls-3, .cls-5 {
        stroke-linejoin: round;
      }

      .cls-4, .cls-5 {
        stroke-width: 2px;
      }
    </style>
  </defs>
  <g>
    <g>
      <path class="cls-11" d="m50.5,207.03c-4.17,6.65-8.53,11.81-8.53,11.81.24,0,.48-.02.73-.04h.04c.22-.02.44-.04.66-.07.31-.04.63-.09.95-.16.23-.04.47-.1.7-.15.01,0,.01-.01.02-.01.27-.06.54-.14.82-.22.49-.14.99-.3,1.49-.5.33-.12.66-.25.99-.39.02-.01.03-.01.05-.02.37-.15.74-.32,1.11-.5.37-.17.75-.35,1.13-.56.03,0,.05-.01.08-.04.33-.16.66-.34,1-.53.39-.21.78-.44,1.17-.68.23-.13.46-.27.7-.42.7-.44,1.41-.9,2.13-1.4,1.96-1.35,3.99-2.9,6.06-4.63.52-.43,1.04-.87,1.57-1.33.47-.4.94-.82,1.42-1.25,1.11-.99,2.22-2.02,3.35-3.1.17-.16.35-.33.52-.5,2.5-2.41,5.04-5,7.59-7.73.42-.45.85-.91,1.27-1.37.85-.93,1.71-1.86,2.56-2.81,4.67-5.22,9.32-10.79,13.79-16.37.45-.56.89-1.12,1.33-1.67,2.78-3.51,5.48-7.01,8.06-10.42.62-.83,1.24-1.65,1.85-2.47.63-.84,1.24-1.67,1.85-2.49.57-.77,1.13-1.53,1.68-2.28.34-.47.68-.94,1.02-1.4.68-.92,1.34-1.83,1.99-2.73.18-.25.35-.49.52-.73.28-.38.55-.76.81-1.13.54-.75,1.07-1.49,1.58-2.21.27-.38.53-.74.79-1.11,2.75-3.89,5.15-7.35,7.07-10.16.32-.48.63-.93.93-1.37,2.43-3.58,3.94-5.87,4.23-6.32-.19.74-.41,1.48-.63,2.22-1.75,5.74-3.66,11.43-5.75,17.05-.38,1.04-.77,2.07-1.17,3.1-.43,1.12-.86,2.23-1.31,3.35-.51,1.29-1.03,2.57-1.56,3.85s-1.06,2.55-1.62,3.82c-.54,1.27-1.1,2.54-1.67,3.8-.42.95-.85,1.9-1.29,2.84-.19.42-.38.84-.58,1.26-.44.96-.9,1.92-1.37,2.87-.11.27-.24.53-.37.78-.51,1.09-1.04,2.17-1.59,3.24-.05.12-.11.24-.17.35-.55,1.12-1.12,2.24-1.7,3.35-.07.14-.14.28-.21.41-.6,1.17-1.22,2.34-1.85,3.5,0,.02-.01.04-.03.06-.64,1.21-1.29,2.41-1.96,3.6,0,.02-.02.04-.03.05-.63,1.15-1.27,2.29-1.93,3.42-.32.57-.64,1.14-.97,1.7-3.47,5.97-6.35,10.38-7.73,11.26.09,0,.65-.13,1.57-.33.15-.04.3-.07.47-.11,2.24-.51,6.14-1.45,10.85-2.8.8-.23,1.63-.48,2.47-.74,2.28-.69,4.7-1.46,7.17-2.33.68-.24,1.37-.49,2.06-.74.4-.15.8-.29,1.19-.44.4-.15.8-.3,1.2-.46.4-.15.8-.31,1.2-.47.39-.15.78-.31,1.17-.47,1.31-.53,2.62-1.09,3.91-1.68.29-.13.57-.26.85-.39.39-.18.78-.36,1.16-.54.75-.36,1.49-.73,2.22-1.11,1.67-.86,3.29-1.76,4.81-2.71.33-.2.65-.4.97-.61.38-.24.75-.49,1.11-.74.31-.21.61-.42.91-.64.34-.24.68-.49,1.01-.75.25-.18.49-.37.73-.57.21-.16.41-.33.61-.5.24-.19.47-.39.69-.59l.66-.6c.24-.22.47-.45.69-.67,1.14-1.14,2.12-2.31,2.91-3.54.13-.19.26-.39.37-.59.48-.8.88-1.63,1.19-2.47-.46,6.82-3.71,16.19-3.71,16.19.33-.23.66-.47.99-.75.16-.13.32-.27.48-.41.04-.03.07-.06.11-.1.13-.12.27-.25.39-.37.81-.79,1.6-1.7,2.37-2.73.16-.21.32-.42.47-.64.13-.18.26-.36.38-.55.07-.1.14-.2.21-.31.23-.34.46-.7.69-1.06l.09-.15c.3-.48.59-.97.88-1.49.04-.05.07-.11.1-.17.24-.41.47-.84.71-1.28.11-.21.23-.43.34-.66.21-.39.41-.79.6-1.19,1.86-3.75,3.6-8.08,5.21-12.73.2-.57.4-1.14.59-1.73.22-.65.44-1.31.65-1.98.12-.36.24-.73.36-1.1.04-.14.09-.29.14-.45.18-.59.37-1.19.55-1.79,1.03-3.39,2.01-6.86,2.91-10.33.15-.54.29-1.07.42-1.61.95-3.7,1.82-7.38,2.62-10.93.13-.59.26-1.18.39-1.76.7-3.21,1.35-6.3,1.92-9.19.1-.52.2-1.04.3-1.55.17-.83.32-1.65.48-2.44.07-.42.15-.83.23-1.24.33-1.76.63-3.4.89-4.9.05-.27.1-.54.15-.8,0-.03,0-.05,0-.08.04-.24.08-.47.12-.7.09-.51.17-.99.25-1.46.08-.51.17-.99.24-1.44.03-.15.05-.3.08-.44.04-.28.09-.56.13-.82s.08-.51.12-.75c.21-1.29.35-2.16.4-2.52.01-.06.02-.1.02-.13.01-.03.01-.05.01-.06.62,2.21,1.39,4.91,2.32,7.97.14.47.29.95.44,1.43.21.69.43,1.39.66,2.11.28.91.58,1.84.89,2.79,2.79,8.59,6.49,18.92,11.05,29.15.3.68.61,1.36.92,2.04.3.68.62,1.36.94,2.04.31.68.64,1.35.96,2.02,1.49,3.1,3.06,6.16,4.71,9.12.24.43.48.85.72,1.27.3.53.6,1.05.9,1.57.31.53.62,1.05.94,1.57.31.51.62,1.02.94,1.53.31.5.63,1.01.95,1.5,1.6,2.49,3.26,4.86,4.99,7.08.3.39.61.78.92,1.16.06.09.13.17.2.26.32.39.64.78.97,1.16.35.42.71.83,1.06,1.23.24.27.48.54.72.8,1.24,1.35,2.49,2.61,3.78,3.77.34.31.69.61,1.03.9.4.35.81.68,1.22,1.01.36.28.72.56,1.09.83.33.25.66.48.99.71,1.28.9,2.59,1.69,3.93,2.37.35.18.7.35,1.06.51,0,0-.05-.08-.14-.25-.04-.07-.09-.14-.14-.24-.14-.24-.32-.56-.54-.97-.06-.11-.13-.23-.19-.35-.5-.92-1.15-2.16-1.89-3.68-.12-.23-.23-.47-.35-.72,0-.03-.03-.06-.04-.09-.14-.28-.28-.57-.41-.87-1.05-2.22-2.21-4.86-3.34-7.81-.1-.26-.2-.52-.3-.79-.1-.26-.2-.53-.3-.8-.08-.21-.15-.41-.23-.62-.81-2.25-1.59-4.64-2.28-7.13-.11-.39-.21-.77-.31-1.16s-.2-.77-.3-1.16c-.12-.45-.23-.91-.33-1.37-.14-.63-.28-1.26-.41-1.89-.07-.32-.13-.63-.19-.95-.07-.32-.13-.64-.18-.96-.12-.63-.22-1.26-.32-1.9-.05-.33-.1-.66-.14-.99-.09-.65-.17-1.3-.23-1.95-.08-.65-.14-1.3-.18-1.95-.02-.33-.04-.65-.06-.98-.04-.65-.07-1.3-.07-1.95-.02-.87-.02-1.75.01-2.62.02-.56.05-1.13.09-1.69l1.34,3.49c.58,1.5,1.18,3,1.81,4.48.24.58.49,1.16.74,1.73.59,1.37,1.2,2.73,1.84,4.08.24.53.49,1.05.74,1.56.31.65.62,1.28.94,1.92.45.9.9,1.79,1.37,2.68.93,1.78,1.9,3.55,2.9,5.3.48.84.97,1.68,1.47,2.51.5.84,1.01,1.67,1.53,2.5.46.74.92,1.47,1.4,2.2.58.91,1.18,1.81,1.79,2.71l.78,1.15c.17.33.34.66.52.98.15.28.3.56.46.84.27.48.54.96.83,1.43.2.35.41.69.63,1.03.25.4.5.8.77,1.2.61.92,1.24,1.82,1.9,2.7.25.33.5.66.76.99.29.38.6.76.91,1.13.25.3.49.6.74.89.24.28.48.55.73.82,1.1,1.24,2.25,2.43,3.46,3.56.24.23.49.46.73.69,1.07.96,2.18,1.9,3.32,2.79l12.82,10.01c.08-.76.19-1.54.32-2.31.65-3.82,1.96-7.64,4.45-10.41,1.63-1.83,3.77-3.2,6.57-3.81,14.97-2.33,32.21.73,36.05,16.52,0,0,20.91-41.77,15.26-57.07.51.52,17.7,17.99,15.62,26.94-2.1,9.07,19.78-40.77-18.8-68.4,0,0,24.35-1.62,29.37-7.54,0,0-32.62,2.15-49.64-24.01-17.03-26.17-25.45-20.61-25.45-20.61,0,0,3.23-14.34,30.81-4.13-.53-.58-19.9-21.57-47.6-15.7l-5.22,1.41s-.03-.05-.05-.07c-1.29-1.56-2.87-2.87-4.66-3.83l-1.22-.66c-2.3-1.25-4.89-1.9-7.51-1.9h-.38c-1.27,0-2.52.15-3.74.45h0s.38-5.36.38-5.36v-.12h0c-.61-1.34-33.93-18.59-56.51-13.8-4.8,1.02-8.7,1.83-11.86,2.46-9,1.81-18.31,1.31-27.04-1.54-10.41-3.39-23.75-8.75-28.73-15.09,0,0,.3,21.92,25.13,27.99,0,0-66.5-.66-79.8,33.56.7-.4,28.81-16.39,35.82-8.15,0,0-30.87,7.27-36.9,35.47,0,0-23.76,17.38-39.37,9.22,0,0,3.9,17.38,33.88,12.42,0,0-26.61,34.05-15.97,67.93,0,0,4.83-18.86,13.2-28.8v21.26c0,10.85,3.46,21.35,9.8,30.02Z"/>
      <path class="cls-11" d="m55.74,213.15l13.84,14.58-1.44-24.85v-.04c-1.13,1.08-2.24,2.11-3.35,3.1-.48.43-.95.85-1.42,1.25-.53.46-1.05.9-1.57,1.33-2.07,1.73-4.1,3.28-6.06,4.63Z"/>
      <path class="cls-8" d="m56.52,506.24h85.99c.93-26.62-15.78-56.49-22.33-67.11-1.66-2.7-1.77-6.1-.2-8.85,3.63-6.34,7.77-9.47,10.87-11.01-3.1-18.4,4.23-27.3,4.23-27.3-9.1-7.1-9.34-23.01-7.65-36.1-.81.75-35.01,31.94-36.07,48.97-1.08,17.24-34.84,93.26-34.84,101.4Z"/>
      <path class="cls-6" d="m254.29,214.69l-12.82-10.01c-1.14-.89-2.25-1.83-3.32-2.79-.24-.23-.49-.46-.73-.69-1.21-1.13-2.36-2.32-3.46-3.56-.25-.27-.49-.54-.73-.82-.25-.29-.49-.59-.74-.89-.31-.37-.62-.75-.91-1.13-.26-.33-.51-.66-.76-.99-.66-.88-1.29-1.78-1.9-2.7-.27-.4-.52-.8-.77-1.2-.22-.34-.43-.68-.63-1.03-.29-.47-.56-.95-.83-1.43-.16-.28-.31-.56-.46-.84-.18-.32-.35-.65-.52-.98l-.78-1.15c-.61-.9-1.21-1.8-1.79-2.71-.48-.73-.94-1.46-1.4-2.2-.52-.83-1.03-1.66-1.53-2.5-.5-.83-.99-1.67-1.47-2.51-1-1.75-1.97-3.52-2.9-5.3-.47-.89-.93-1.78-1.37-2.68-.32-.64-.63-1.27-.94-1.92-.25-.51-.5-1.03-.74-1.56-.64-1.35-1.25-2.71-1.84-4.08-.25-.57-.5-1.15-.74-1.73-.63-1.48-1.23-2.98-1.81-4.48l-1.34-3.49c-.04.56-.07,1.13-.09,1.69-.03.87-.03,1.75-.01,2.62.01.65.04,1.3.07,1.95.02.33.04.65.06.98.05.65.11,1.3.18,1.95s.15,1.3.23,1.95c.04.33.09.66.14.99.1.63.21,1.27.32,1.9.05.32.11.64.18.96.06.32.12.63.19.95.13.63.27,1.26.41,1.89.1.46.21.92.33,1.37.1.39.2.77.3,1.16s.2.77.31,1.16c.69,2.49,1.47,4.88,2.28,7.13.08.21.15.41.23.62.1.27.2.54.3.8.1.27.2.53.3.79,1.13,2.95,2.29,5.59,3.34,7.81.13.3.27.59.41.87.01.03.03.06.04.09.12.25.23.49.35.72.74,1.52,1.39,2.76,1.89,3.68.06.12.13.24.19.35.22.41.4.73.54.97.05.1.1.17.14.24.09.17.14.25.14.25-.36-.16-.71-.33-1.06-.51-1.34-.68-2.65-1.47-3.93-2.37-.33-.22-.66-.46-.99-.71-.36-.26-.73-.54-1.09-.83-.41-.33-.82-.66-1.22-1.01-.34-.29-.69-.59-1.03-.9-1.29-1.16-2.54-2.42-3.78-3.77-.24-.26-.48-.53-.72-.8-.35-.4-.71-.81-1.06-1.23-.33-.38-.65-.77-.97-1.16-.07-.09-.14-.17-.2-.26-.31-.38-.62-.77-.92-1.16-1.73-2.22-3.39-4.59-4.99-7.08-.32-.49-.64-1-.95-1.5-.32-.51-.63-1.02-.94-1.53-.32-.52-.63-1.04-.94-1.57-.3-.52-.6-1.04-.9-1.57-.24-.42-.48-.84-.72-1.27-1.65-2.96-3.22-6.02-4.71-9.12-.32-.67-.65-1.34-.96-2.02-.32-.68-.64-1.36-.94-2.04-.32-.68-.62-1.36-.92-2.04-4.56-10.23-8.26-20.56-11.05-29.15-.31-.95-.61-1.88-.89-2.79-.23-.72-.45-1.42-.66-2.11-.15-.48-.3-.96-.44-1.43-.93-3.06-1.7-5.76-2.32-7.97,0,.01,0,.03-.01.06,0,.03-.01.07-.02.13-.05.36-.19,1.23-.4,2.52-.04.24-.08.49-.12.75s-.09.54-.13.82c-.03.14-.05.29-.08.44-.07.45-.15.93-.24,1.44-.08.47-.16.95-.25,1.46-.04.23-.08.46-.12.7,0,.03,0,.05,0,.08-.05.26-.1.53-.15.8-.26,1.5-.56,3.14-.89,4.9-.08.41-.16.82-.23,1.24-.16.79-.31,1.61-.48,2.44-.1.51-.2,1.03-.3,1.55-.57,2.89-1.22,5.98-1.92,9.19-.13.58-.26,1.17-.39,1.76-.8,3.55-1.67,7.23-2.62,10.93-.13.54-.27,1.07-.42,1.61-.9,3.47-1.88,6.94-2.91,10.33-.18.6-.37,1.2-.55,1.79-.05.16-.1.31-.14.45-.12.37-.24.74-.36,1.1-.21.67-.43,1.33-.65,1.98-.19.59-.39,1.16-.59,1.73-1.61,4.65-3.35,8.98-5.21,12.73-.19.4-.39.8-.6,1.19-.11.23-.23.45-.34.66-.24.44-.47.87-.71,1.28-.03.06-.06.12-.1.17-.29.52-.58,1.01-.88,1.49l-.09.15c-.23.36-.46.72-.69,1.06-.07.11-.14.21-.21.31-.12.19-.25.37-.38.55-.15.22-.31.43-.47.64-.77,1.03-1.56,1.94-2.37,2.73-.12.12-.26.25-.39.37-.04.04-.07.07-.11.1-.16.14-.32.28-.48.41-.33.28-.66.52-.99.75,0,0,3.25-9.37,3.71-16.19-.31.84-.71,1.67-1.19,2.47-.11.2-.23.4-.37.59-.79,1.23-1.77,2.4-2.91,3.54-.22.22-.45.45-.69.67l-.66.6c-.22.2-.45.4-.69.59-.2.17-.4.34-.61.5-.24.2-.48.39-.73.57-.33.26-.67.51-1.01.75-.3.22-.6.43-.91.64-.36.25-.73.5-1.11.74-.32.21-.64.41-.97.61-1.52.95-3.14,1.85-4.81,2.71-.73.38-1.47.75-2.22,1.11-.38.18-.77.36-1.16.54-.28.13-.56.26-.85.39-1.29.59-2.6,1.15-3.91,1.68-.39.16-.78.32-1.17.47-.4.16-.8.32-1.2.47-.4.16-.8.32-1.2.46-.39.15-.79.29-1.19.44-.69.26-1.38.5-2.06.74-2.47.87-4.89,1.64-7.17,2.33-.84.27-1.67.51-2.47.74-4.71,1.35-8.61,2.29-10.85,2.8-.17.04-.32.07-.47.11-.92.2-1.48.32-1.57.33,1.38-.88,4.26-5.29,7.73-11.26.33-.56.65-1.13.97-1.7.65-1.14,1.3-2.28,1.93-3.42.01-.01.02-.03.03-.05.67-1.19,1.32-2.39,1.96-3.6.02-.02.03-.04.03-.06.63-1.16,1.24-2.33,1.85-3.5.07-.13.14-.27.21-.41.57-1.11,1.14-2.23,1.7-3.35.06-.11.12-.23.17-.35.54-1.07,1.07-2.15,1.59-3.24.13-.25.26-.51.37-.78.47-.95.92-1.91,1.37-2.87.2-.42.39-.84.58-1.26.44-.94.87-1.89,1.29-2.84.57-1.26,1.12-2.53,1.67-3.8s1.09-2.54,1.62-3.82,1.05-2.56,1.56-3.85c.45-1.12.88-2.23,1.31-3.35.4-1.03.79-2.06,1.17-3.1,2.09-5.62,4-11.31,5.75-17.05.22-.74.44-1.48.63-2.22-.29.45-1.8,2.74-4.23,6.32-.29.44-.6.89-.93,1.37-1.92,2.81-4.32,6.27-7.07,10.16-.26.37-.52.73-.79,1.11-.51.72-1.04,1.46-1.58,2.21-.26.37-.53.75-.81,1.13-.17.24-.34.48-.52.73-.65.9-1.31,1.81-1.99,2.73-.34.46-.68.93-1.02,1.4-.55.75-1.11,1.51-1.68,2.28-.61.82-1.22,1.65-1.85,2.49-.61.82-1.23,1.64-1.85,2.47-2.58,3.41-5.28,6.91-8.06,10.42-.44.55-.88,1.11-1.33,1.67-4.47,5.58-9.12,11.15-13.79,16.37-.85.95-1.71,1.88-2.56,2.81-.42.46-.85.92-1.27,1.37-2.55,2.73-5.09,5.32-7.59,7.73-.17.17-.35.34-.52.5v.04l1.44,24.85.07,1.16,2.52,43.36c0,7.26,1.12,11.17,6.99,21.5,5.18,9.14,28.47,31.57,52.33,42.64,3.13,1.46,6.28,2.71,9.39,3.72,1.75.56,3.55.98,5.37,1.25,3.82.59,7.78.58,11.74.14,4.75-.53,9.51-1.67,14.08-3.16,1.38,1.24,6.97,6.47,11.01,13.29,1.35,2.28,2.52,4.74,3.31,7.28h-.01s-10.84,18.81-5.14,31.08c0,0,3.72,11.39,14.68,8.76,6.16-1.48,11.63-8.02,15.24-13.46,4.75-7.17,10.42-13.69,16.71-19.57,14.97-14,39.89-35.81,52.32-38.44,0,0-10.05-3.07-20.94-23.46-10.89-20.38,5.44-42.34,5.44-42.34,16.57-1,30.98-12.34,36.02-27.22,1.22-3.63,1.89-7.46,1.9-11.41,0-2.68-.29-5.41-.93-8.16h0c-3.84-15.8-21.08-18.86-36.05-16.53-2.8.61-4.94,1.98-6.57,3.81-2.49,2.77-3.8,6.59-4.45,10.41-.13.77-.24,1.55-.32,2.31Z"/>
      <path class="cls-6" d="m102.72,187.07c-.63,1.14-1.28,2.28-1.93,3.42.66-1.13,1.3-2.27,1.93-3.42Z"/>
      <path class="cls-6" d="m106.59,179.86c-.61,1.17-1.22,2.34-1.85,3.5.63-1.16,1.25-2.33,1.85-3.5Z"/>
      <path class="cls-6" d="m107.45,199.47c-.84.26-1.67.51-2.47.74.8-.23,1.63-.47,2.47-.74Z"/>
      <path class="cls-6" d="m108.5,176.1c-.56,1.12-1.13,2.24-1.7,3.35.58-1.11,1.15-2.23,1.7-3.35Z"/>
      <path class="cls-6" d="m110.26,172.51c-.52,1.09-1.05,2.17-1.59,3.24.55-1.07,1.08-2.15,1.59-3.24Z"/>
      <path class="cls-6" d="m112,168.86c-.45.96-.9,1.92-1.37,2.87.47-.95.93-1.91,1.37-2.87Z"/>
      <path class="cls-6" d="m116.68,196.4c-.69.25-1.38.5-2.06.74.68-.24,1.37-.48,2.06-.74Z"/>
      <path class="cls-6" d="m115.54,160.96c-.55,1.27-1.1,2.54-1.67,3.8.57-1.26,1.13-2.53,1.67-3.8Z"/>
      <path class="cls-6" d="m117.16,157.14c-.53,1.28-1.07,2.55-1.62,3.82.56-1.27,1.09-2.54,1.62-3.82Z"/>
      <path class="cls-6" d="m119.07,195.5c-.4.16-.8.31-1.2.46.4-.14.8-.3,1.2-.46Z"/>
      <path class="cls-9" d="m157.99,341.5c-3.96.44-7.92.45-11.74-.14-1.82-.27-3.62-.69-5.37-1.25-3.11-1.01-6.26-2.26-9.39-3.72-.67,2.3-2.85,10.18-4.05,19.48h-.01c-1.69,13.09-1.45,29,7.65,36.1,0,0-7.33,8.9-4.23,27.3-3.1,1.54-7.24,4.67-10.87,11.01-1.57,2.75-1.46,6.15.2,8.85,6.55,10.62,23.26,40.49,22.33,67.11h12.3c-.27-9.69-.41-19.38-.41-29.07,0-22.37.73-44.73,2.17-67.05.09-1.49.59-2.91,1.45-4.13,6.61-9.41,25.06-54.36,25.06-54.36-4.04-6.82-9.63-12.05-11.01-13.29-4.57,1.49-9.33,2.63-14.08,3.16Z"/>
      <path class="cls-6" d="m145.05,178.33c-.11.2-.24.4-.37.59.14-.19.26-.39.37-.59Z"/>
      <path class="cls-9" d="m211.6,412.03c1.95-.88,3.79-2.01,5.48-3.36l7.98-6.41c44.82-35.97,86.15-76.08,123.44-119.8l1.34-1.57c2.91-3.41,4.4-7.66,4.4-11.94,0-3.08-.77-6.18-2.35-8.99l.12-.18c.96-1.4,1.45-3.01,1.47-4.63v-.12c0-1.54-.43-3.09-1.28-4.46-2.07-3.33-5.32-5.76-9.11-6.81l-8.69-2.4.09-1.1c.04-.49.06-.98.06-1.46,0-4.39-1.57-8.64-4.45-11.98-3.23-3.74-8.07-5.7-12.99-5.26l-14.5,1.29c-.01,3.95-.68,7.78-1.9,11.41,44.81,43.58-20.52,93.03-20.52,93.03h0c-12.43,2.62-37.35,24.43-52.32,38.43-6.29,5.88-11.96,12.4-16.71,19.57-3.61,5.44-9.08,11.98-15.24,13.46-10.96,2.63-14.68-8.76-14.68-8.76-5.7-12.27,5.14-31.08,5.14-31.08h.01c-.79-2.54-1.96-5-3.31-7.28,0,0-18.45,44.95-25.06,54.36-.86,1.22-1.36,2.64-1.45,4.13-1.44,22.32-2.17,44.68-2.17,67.05,0,9.69.14,19.38.41,29.07h43.78c-3.19-9.56-5.83-19.29-7.9-29.13-2.07-9.85-3.57-19.81-4.5-29.85-.36-3.81,1.86-7.38,5.42-8.77l15.1-5.86c2.94-1.14,4.89-3.98,4.89-7.14v-13.45h0Z"/>
      <path class="cls-6" d="m169.77,111.98c-.07.45-.16.93-.24,1.44.09-.51.17-.99.24-1.44Z"/>
      <path class="cls-8" d="m329.08,506.24h86.34c-6.07-62.29-34.21-109.47-34.21-109.47,19.16,0,17.87-12.68,16.31-48.41-1.55-35.73-44.04-93.21-44.04-93.21-.02,1.62-.51,3.23-1.47,4.63l-.12.18c1.58,2.81,2.35,5.91,2.35,8.99,0,4.28-1.49,8.53-4.4,11.94l-1.34,1.57c-37.29,43.72-78.62,83.83-123.44,119.8l-7.98,6.41c-1.69,1.35-3.53,2.48-5.48,3.36h0v13.46c0,3.16-1.95,6-4.89,7.14l-15.1,5.86c-3.56,1.39-5.78,4.96-5.42,8.77.93,10.04,2.43,20,4.5,29.85,2.07,9.84,4.71,19.57,7.9,29.13h130.49Z"/>
      <path class="cls-6" d="m213.85,191.57c-.37-.27-.73-.55-1.09-.83.36.29.73.57,1.09.83Z"/>
      <path class="cls-6" d="m214.84,192.28c-.33-.23-.66-.46-.99-.71.33.25.66.49.99.71Z"/>
      <path class="cls-11" d="m216.61,6.1s11.63,13.99,12.24,27.97h0s.01.02.01.03v.1c.07,1.8-.04,3.59-.39,5.35h0c1.22-.29,2.47-.44,3.74-.44h.38c2.62,0,5.21.65,7.51,1.9l1.22.66c1.79.96,3.37,2.27,4.66,3.83.02.02.04.05.05.07,1.77-.58,3.51-1.05,5.22-1.41,0,0-22.28-36.62-34.64-38.06Z"/>
      <path class="cls-9" d="m264.69,261.48s-16.33,21.96-5.44,42.34c10.89,20.39,20.94,23.46,20.94,23.46h0s65.33-49.44,20.52-93.02c-5.04,14.88-19.45,26.22-36.02,27.22Z"/>
    </g>
    <g>
      <path class="cls-1" d="m249.61,59.09v-3.52c0-3.65-1.26-7.18-3.58-10-.01-.02-.03-.05-.05-.07-1.29-1.56-2.87-2.87-4.66-3.83l-1.22-.66c-2.3-1.25-4.89-1.9-7.51-1.9h-.38c-1.27,0-2.52.15-3.74.45-2.46.59-4.75,1.78-6.68,3.47l-14.73,12.91"/>
      <path class="cls-1" d="m316.93,157.6h.01c5.65,15.31-15.26,57.08-15.26,57.08"/>
      <path class="cls-1" d="m298.86,59.87h-.01c-27.58-10.22-30.81,4.12-30.81,4.12,0,0,8.42-5.56,25.45,20.61,17.02,26.16,49.64,24.01,49.64,24.01-5.02,5.92-29.37,7.54-29.37,7.54,38.58,27.63,16.7,77.47,18.8,68.4,2.08-8.95-15.11-26.42-15.62-26.94"/>
      <path class="cls-1" d="m228.85,34.07c-.61-13.98-12.24-27.97-12.24-27.97,12.36,1.44,34.64,38.06,34.64,38.06l-5.22,1.41c1.77-.58,3.51-1.05,5.22-1.41,27.7-5.87,47.07,15.12,47.6,15.7"/>
      <path class="cls-1" d="m228.85,34.08s.01.01.01.02v.1s-.39,5.35-.39,5.35c.35-1.76.46-3.55.38-5.35v-.12"/>
      <line class="cls-1" x1="228.85" y1="34.08" x2="228.85" y2="34.07"/>
      <path class="cls-1" d="m50.03,67.67h.01c13.3-34.23,79.8-33.57,79.8-33.57-24.83-6.07-25.13-27.99-25.13-27.99,4.98,6.34,18.32,11.7,28.73,15.09,8.73,2.85,18.04,3.35,27.04,1.54,3.16-.63,7.06-1.44,11.86-2.46,22.58-4.79,55.9,12.46,56.51,13.79"/>
      <path class="cls-1" d="m47.37,150.49c-2.42.97-4.65,2.85-6.67,5.26-8.37,9.94-13.2,28.8-13.2,28.8-10.64-33.88,15.97-67.93,15.97-67.93-29.98,4.96-33.88-12.42-33.88-12.42,15.61,8.16,39.37-9.22,39.37-9.22,6.03-28.2,36.9-35.47,36.9-35.47-7.01-8.24-35.12,7.75-35.82,8.15"/>
      <line class="cls-1" x1="55.74" y1="213.15" x2="69.58" y2="227.73"/>
      <path class="cls-1" d="m40.7,155.75v21.26c0,10.85,3.46,21.35,9.8,30.02"/>
      <path class="cls-1" d="m168.79,100.67s.59,2.45,1.74,6.58"/>
      <path class="cls-1" d="m146.24,175.85c.12-1.82.05-3.45-.34-4.67"/>
      <path class="cls-1" d="m129.36,97.26c1.46,10.12.89,20.44-1.77,30.3"/>
      <path class="cls-2" d="m171.75,338.06s.11.1.32.28c1.38,1.24,6.97,6.47,11.01,13.29,1.35,2.28,2.52,4.74,3.31,7.28,1.06,3.41,1.41,6.98.55,10.48"/>
      <path class="cls-1" d="m68.14,202.84v.04l1.44,24.85.07,1.16,2.52,43.36c0,7.26,1.12,11.17,6.99,21.5,5.18,9.14,28.47,31.57,52.33,42.64,3.13,1.46,6.28,2.71,9.39,3.72,1.75.56,3.55.98,5.37,1.25,3.82.59,7.78.58,11.74.14,4.75-.53,9.51-1.67,14.08-3.16,17.71-5.76,32.58-16.66,32.58-16.66"/>
      <path class="cls-1" d="m254.5,226.76s-.89-5.72-.21-12.07c.08-.76.19-1.54.32-2.31.65-3.82,1.96-7.64,4.45-10.41,1.63-1.83,3.77-3.2,6.57-3.81,14.97-2.33,32.21.73,36.05,16.52h0c.64,2.76.93,5.49.93,8.17-.01,3.95-.68,7.78-1.9,11.41-5.04,14.88-19.45,26.22-36.02,27.22,0,0-16.33,21.96-5.44,42.34,10.89,20.39,20.94,23.46,20.94,23.46-12.43,2.63-37.35,24.44-52.32,38.44-6.29,5.88-11.96,12.4-16.71,19.57-3.61,5.44-9.08,11.98-15.24,13.46-10.96,2.63-14.68-8.76-14.68-8.76-5.7-12.27,5.14-31.08,5.14-31.08"/>
      <path class="cls-1" d="m170.53,107.26c.62,2.21,1.39,4.91,2.32,7.97.14.47.29.95.44,1.43.21.69.43,1.39.66,2.11.28.91.58,1.84.89,2.79,2.79,8.59,6.49,18.92,11.05,29.15.3.68.6,1.36.92,2.04.3.68.62,1.36.94,2.04.31.68.64,1.35.96,2.02,1.49,3.1,3.06,6.16,4.71,9.12.24.43.48.85.72,1.27.3.53.6,1.05.9,1.57.31.53.62,1.05.94,1.57.31.51.62,1.02.94,1.53.31.5.63,1.01.95,1.5,1.6,2.49,3.26,4.86,4.99,7.08.3.39.61.78.92,1.16.06.09.13.17.2.26.32.39.64.78.97,1.16.35.42.71.83,1.06,1.23.24.27.48.54.72.8,1.24,1.35,2.49,2.61,3.78,3.77.34.31.69.61,1.03.9.4.35.81.68,1.22,1.01.36.28.72.56,1.09.83.33.25.66.48.99.71,1.28.9,2.59,1.69,3.93,2.37.35.18.7.35,1.06.51,0,0-.05-.08-.14-.25-.04-.07-.09-.14-.14-.24-.14-.24-.32-.56-.54-.97-.06-.11-.13-.23-.19-.35-.5-.92-1.15-2.16-1.89-3.68-.12-.23-.23-.47-.35-.72,0-.03-.03-.06-.04-.09-.14-.28-.28-.57-.41-.87-1.05-2.22-2.21-4.86-3.34-7.81-.1-.26-.2-.52-.3-.79-.1-.26-.2-.53-.3-.8-.08-.21-.15-.41-.23-.62-.81-2.25-1.59-4.64-2.28-7.13-.11-.39-.21-.77-.31-1.16s-.2-.77-.3-1.16c-.12-.45-.23-.91-.33-1.37-.14-.63-.28-1.26-.41-1.89-.07-.32-.13-.63-.19-.95-.07-.32-.13-.64-.18-.96-.11-.63-.22-1.27-.32-1.9-.05-.33-.1-.66-.14-.99-.08-.65-.16-1.3-.23-1.95s-.13-1.3-.18-1.95c-.02-.33-.04-.65-.06-.98-.03-.65-.06-1.3-.07-1.95-.02-.87-.02-1.75.01-2.62.02-.56.05-1.13.09-1.69l1.34,3.49c.58,1.5,1.18,3,1.81,4.48.24.58.49,1.16.74,1.73.59,1.37,1.2,2.73,1.84,4.08.24.53.49,1.05.74,1.56.31.65.62,1.28.94,1.92.44.9.9,1.79,1.37,2.68.93,1.78,1.9,3.55,2.9,5.3.48.84.97,1.68,1.47,2.51.5.84,1.01,1.67,1.53,2.5.46.74.92,1.47,1.4,2.2.58.91,1.18,1.81,1.79,2.71l.78,1.15c.17.33.34.66.52.98.15.28.3.56.46.84.27.48.54.96.83,1.43.2.35.41.69.63,1.03.25.4.5.8.77,1.2.61.92,1.24,1.82,1.9,2.7.25.33.5.66.76.99.29.38.6.76.91,1.13.25.3.49.6.74.89.24.28.48.55.73.82,1.1,1.24,2.25,2.43,3.46,3.56.24.23.49.46.73.69,1.07.96,2.18,1.9,3.32,2.79l12.82,10.01"/>
      <path class="cls-1" d="m170.53,107.25h0s0,.04-.01.07c0,.03-.01.07-.02.13-.05.36-.19,1.23-.4,2.52-.04.24-.08.49-.12.75s-.09.54-.13.82c-.03.14-.05.29-.08.44-.07.45-.16.93-.24,1.44-.08.47-.16.95-.25,1.46-.04.23-.08.46-.12.7,0,.03,0,.05,0,.08-.05.26-.1.53-.15.8-.26,1.5-.56,3.14-.89,4.9-.08.41-.16.82-.23,1.24-.16.79-.31,1.61-.48,2.44-.1.51-.2,1.03-.3,1.55-.57,2.89-1.22,5.98-1.92,9.19-.13.58-.26,1.17-.39,1.76-.8,3.55-1.67,7.23-2.62,10.93-.13.54-.27,1.07-.42,1.61-.9,3.47-1.88,6.94-2.91,10.33-.18.6-.37,1.2-.55,1.79-.05.16-.1.31-.14.45-.12.37-.24.74-.36,1.1-.21.67-.43,1.33-.65,1.98-.19.59-.39,1.16-.59,1.73-1.61,4.65-3.35,8.98-5.21,12.73-.19.4-.39.8-.6,1.19-.11.23-.23.45-.34.66-.24.44-.47.87-.71,1.28-.03.06-.06.12-.1.17-.29.52-.58,1.01-.88,1.49l-.09.15c-.23.36-.46.72-.69,1.06-.07.11-.14.21-.21.31-.12.19-.25.37-.38.55-.15.22-.31.43-.47.64-.77,1.03-1.56,1.94-2.37,2.73-.12.12-.26.25-.39.37-.04.04-.07.07-.11.1-.16.14-.32.28-.48.41-.33.28-.66.52-.99.75,0,0,3.25-9.37,3.71-16.19"/>
      <path class="cls-1" d="m92.07,203.46s0,0,.02-.01c.09,0,.65-.13,1.57-.33.15-.04.3-.07.47-.11,2.24-.51,6.14-1.45,10.85-2.8.8-.23,1.63-.48,2.47-.74,2.28-.69,4.7-1.46,7.17-2.33.68-.24,1.37-.49,2.06-.74.4-.15.8-.29,1.19-.44.4-.15.8-.3,1.2-.46.4-.15.8-.31,1.2-.47.39-.15.78-.31,1.17-.47,1.31-.53,2.62-1.09,3.91-1.68.29-.13.57-.26.85-.39.39-.18.78-.36,1.16-.54.75-.36,1.49-.73,2.22-1.11,1.67-.86,3.29-1.76,4.81-2.71.33-.2.65-.4.97-.61.38-.24.75-.49,1.11-.74.31-.21.61-.42.91-.64.34-.24.68-.49,1.01-.75.25-.18.49-.37.73-.57.21-.16.41-.33.61-.5.24-.19.47-.39.69-.59l.66-.6c.24-.22.47-.45.69-.67,1.14-1.14,2.12-2.31,2.91-3.54.13-.19.26-.39.37-.59.48-.8.88-1.63,1.19-2.47h0"/>
      <path class="cls-1" d="m127.58,127.57c-.19.74-.41,1.48-.63,2.22-1.75,5.74-3.66,11.43-5.75,17.05-.38,1.04-.77,2.07-1.17,3.1-.43,1.12-.86,2.23-1.31,3.35-.51,1.29-1.03,2.57-1.56,3.85s-1.06,2.55-1.62,3.82c-.54,1.27-1.1,2.54-1.67,3.8-.42.95-.85,1.9-1.29,2.84-.19.42-.38.84-.58,1.26-.44.96-.9,1.92-1.37,2.87-.11.27-.24.53-.37.78-.51,1.09-1.04,2.17-1.59,3.24-.05.12-.11.24-.17.35-.55,1.12-1.12,2.24-1.7,3.35-.07.14-.14.28-.21.41-.6,1.17-1.22,2.34-1.85,3.5,0,.02-.01.04-.03.06-.64,1.21-1.29,2.41-1.96,3.6,0,.02-.02.04-.03.05-.63,1.15-1.27,2.29-1.93,3.42-.32.57-.64,1.14-.97,1.7-3.47,5.97-6.35,10.38-7.73,11.26"/>
      <path class="cls-1" d="m127.63,127.49s-.01.02-.04.07c-.01,0-.01.01-.01.01-.29.45-1.8,2.74-4.23,6.32-.29.44-.6.89-.93,1.37-1.92,2.81-4.32,6.27-7.07,10.16-.26.37-.52.73-.79,1.11-.51.72-1.04,1.46-1.58,2.21-.26.37-.53.75-.81,1.13-.17.24-.34.48-.52.73-.65.9-1.31,1.81-1.99,2.73-.34.46-.68.93-1.02,1.4-.55.75-1.11,1.51-1.68,2.28-.61.82-1.22,1.65-1.85,2.49-.61.82-1.23,1.64-1.85,2.47-2.58,3.41-5.28,6.91-8.06,10.42-.44.55-.88,1.11-1.33,1.67-4.47,5.58-9.12,11.15-13.79,16.37-.85.95-1.71,1.88-2.56,2.81-.42.46-.85.92-1.27,1.37-2.55,2.73-5.09,5.32-7.59,7.73-.17.17-.35.34-.52.5-1.13,1.08-2.24,2.11-3.35,3.1-.48.43-.95.85-1.42,1.25-.53.46-1.05.9-1.57,1.33-2.07,1.73-4.1,3.28-6.06,4.63-.72.5-1.43.96-2.13,1.4-.24.15-.47.29-.7.42-.39.24-.78.47-1.17.68-.34.19-.67.37-1,.53-.03.03-.05.04-.08.04-.38.21-.76.39-1.13.56-.37.18-.74.35-1.11.5-.02.01-.03.01-.05.02-.33.14-.66.27-.99.39-.5.2-1,.36-1.49.5-.28.08-.55.16-.82.22-.01,0-.01.01-.02.01-.23.05-.47.11-.7.15-.32.07-.64.12-.95.16-.22.03-.44.05-.66.07h-.04c-.25.02-.49.04-.73.04,0,0,4.36-5.16,8.53-11.81,4.19-6.66,8.18-14.83,7.38-20.8"/>
      <path class="cls-2" d="m280.19,327.29s65.33-49.45,20.52-93.03"/>
      <path class="cls-2" d="m302.61,222.85l14.5-1.29c4.92-.44,9.76,1.52,12.99,5.26,2.88,3.34,4.45,7.59,4.45,11.98,0,.48-.02.97-.06,1.46l-.09,1.1,8.69,2.4c3.79,1.05,7.04,3.48,9.11,6.81.85,1.37,1.28,2.92,1.28,4.46v.12c-.02,1.62-.51,3.23-1.47,4.63l-.12.18c1.58,2.81,2.35,5.91,2.35,8.99,0,4.28-1.49,8.53-4.4,11.94l-1.34,1.57c-37.29,43.72-78.62,83.83-123.44,119.8l-7.98,6.41c-1.69,1.35-3.53,2.48-5.48,3.36-3.32,1.52-6.95,2.31-10.64,2.31"/>
      <path class="cls-3" d="m353.48,255.15s42.49,57.48,44.04,93.21c1.56,35.73,2.85,48.41-16.31,48.41s-45.18-23.56-64.8-19.16c-17.88,4.02-65.3,30.63-84.33,48.64-4.13,3.92-8.63,7.41-13.47,10.4v19.93"/>
      <path class="cls-3" d="m211.6,412.04v13.45c0,3.16-1.95,6-4.89,7.14l-15.1,5.86c-3.56,1.39-5.78,4.96-5.42,8.77.93,10.04,2.43,20,4.5,29.85,2.07,9.84,4.71,19.57,7.9,29.13"/>
      <path class="cls-3" d="m381.21,396.77s28.14,47.18,34.21,109.47H56.52c0-8.14,33.76-84.16,34.84-101.4,1.06-17.03,35.26-48.22,36.07-48.97"/>
      <path class="cls-5" d="m329.08,506.24s20.54-41.33,56.01-63.26"/>
      <path class="cls-5" d="m369.22,399.15s14.93,14.43,15.87,32.63"/>
      <path class="cls-3" d="m146.24,341.28s0,.03,0,.08c.38,2.22,8.29,49.68,0,63.35,0,0-3.62,6.13-8.06,4.95"/>
      <path class="cls-3" d="m131.69,335.71s-.07.24-.2.68c-.67,2.3-2.85,10.18-4.05,19.48h-.01c-1.69,13.09-1.45,29,7.65,36.1,0,0-7.33,8.9-4.23,27.3h0"/>
      <path class="cls-3" d="m135.64,417.78s-1.97.09-4.79,1.49c-3.1,1.54-7.24,4.67-10.87,11.01-1.57,2.75-1.46,6.15.2,8.85,6.55,10.62,23.26,40.49,22.33,67.11"/>
      <path class="cls-3" d="m183.08,351.63s-18.45,44.95-25.06,54.36c-.86,1.22-1.36,2.64-1.45,4.13-1.44,22.32-2.17,44.68-2.17,67.05,0,9.69.14,19.38.41,29.07"/>
      <path class="cls-4" d="m158.2,341.28s-.08.08-.21.22c-.95,1.04-4.88,5.41-5.77,8.26"/>
      <path class="cls-5" d="m95.29,410.81s-3.57,45.75,3.99,83.31"/>
      <path class="cls-5" d="m281.59,280.77s7.55,24.51-1.4,39.76"/>
      <path class="cls-5" d="m308.47,285.91c-1.31-2.07-4.41-16.8-12.16-19.9s-19.38.26-20.41,1.81"/>
    </g>
  </g>
  <path class="cls-10" d="m123.71,226.17c-.21,4.38-.1,8.74.12,13.11,0,0,.37-.8.37-.8-.86.59-1.71,1.19-2.54,1.8-.83.65-1.89,1.23-2.61,2.11-2.62,3.33-.59,7.81,3.42,8.54,2.99.94,5.98,1.82,9.04,2.52-1.85-.98-3.74-1.87-5.64-2.72-1.6-.87-4-1.37-5.18-2.62-1.11-1.23-1.14-3.25-.09-4.46,1.21-1.22,3.32-2.54,4.73-3.75.24-.19.35-.49.32-.77-.47-4.35-1.04-8.68-1.93-12.97h0Z"/>
  <g>
    <g>
      <path class="cls-2" d="m208.2,170.7c-13.62-8.31-49.46-15.84-71.15,12.15-10.41,16.12-7.97,48.36,16.49,58.59,21.26,7.05,69.67,1.79,62.83-58.58-.81-5.04-3.84-9.45-8.17-12.16Z"/>
      <path class="cls-7" d="m196.28,182.17c-8.85-5.4-32.15-10.3-46.26,7.9-6.77,10.48-5.18,31.44,10.72,38.09,13.82,4.58,45.29,1.17,40.85-38.08-.53-3.28-2.5-6.15-5.31-7.91Z"/>
      <path class="cls-2" d="m107.72,195.17c-4.55-7.47-29-9.26-46.7,3.24-12.9,7.35-11.73,25.73-8.05,38.65,1.6,5.61,4.66,10.76,9.16,14.48,27,22.33,70.73-24.71,45.6-56.37Z"/>
      <path class="cls-7" d="m107.38,203.09c-2.8-4.59-17.83-5.7-28.72,1.99-7.93,4.52-7.22,15.82-4.95,23.77.98,3.45,2.86,6.62,5.63,8.91,16.61,13.73,43.5-15.2,28.04-34.67Z"/>
      <path class="cls-4" d="m133.06,190.63s-17.22-5.32-25.34,4.54"/>
    </g>
    <path class="cls-10" d="m212.59,174.55l2.9,5.02h2.36l8.84,7.89,27.92,24.93c.65-3.82,1.96-7.64,4.45-10.41l-39.33-27.43h-7.14Z"/>
  </g>
  <g>
    <g>
      <path class="cls-10" d="m205.17,185.98c-14.91-9.68-44.17-17.88-55.11,1.17-1.38,2.61-2.12,5.43-2.49,8.23,1.22-2.57,2.43-5.06,4.14-7.16,11.88-15.07,37.76-6.59,53.46-2.23h0Z"/>
      <path class="cls-10" d="m71.07,208.93c9.18-3.94,25.22-13.12,34.5-6.81,1.41.97,2.59,2.3,3.71,3.77-.51-1.76-1.43-3.45-2.74-4.88-9.6-9.33-27.52.29-35.47,7.92h0Z"/>
      <g>
        <g>
          <ellipse class="cls-11" cx="170.53" cy="202.56" rx="15.06" ry="19.35"/>
          <path class="cls-10" d="m155.46,202.56c-.36,11.7,9.57,24.95,22.04,18.37,12.77-7.48,12.79-29.26,0-36.75-12.47-6.58-22.4,6.68-22.04,18.38h0Zm0,0c-.12-8.53,5.58-18.87,15.06-18.59,8.99.64,13.65,10.48,13.57,18.59.11,8.09-4.58,17.98-13.57,18.6-9.49.27-15.19-10.07-15.06-18.6h0Z"/>
        </g>
        <g>
          <ellipse class="cls-11" cx="94.3" cy="217.02" rx="13.42" ry="17.24"/>
          <path class="cls-10" d="m80.87,217.02c-.37,10.41,8.59,22.33,19.69,16.47,11.51-6.67,11.53-26.26,0-32.94-11.11-5.87-20.06,6.06-19.7,16.47h0Zm0,0c-.11-7.58,4.99-16.78,13.42-16.48,7.93.62,12,9.32,11.92,16.48.09,7.15-3.99,15.88-11.92,16.49-8.44.29-13.53-8.91-13.42-16.49h0Z"/>
        </g>
      </g>
    </g>
    <g>
      <ellipse class="cls-10" cx="167.93" cy="202.56" rx="6.19" ry="7.96"/>
      <ellipse class="cls-10" cx="92.71" cy="216.7" rx="3.76" ry="4.83"/>
    </g>
  </g>
  <path class="cls-7" d="m118.85,280.97c0,1.32.52,2.51,1.36,3.4.84.89,2.02,1.47,3.33,1.54,11.46.61,22.95-.44,34.11-3.1l11.05-2.63c2.23-.54,3.81-2.53,3.81-4.82v-2.31c-17.09.57-38.02.34-53.63,7.91-.01-.01-.02,0-.03.01Z"/>
  <path d="m113.46,288.29c6.03,6.64,14.8,8.98,23.56,8.77,6.62-.17,13.09-1.96,19.03-4.91,3.1-1.53,6.96-3.57,10.29-5.71,8.43-5.4,14.3-12.6,9.81-13.53-1.19.05-2.4.1-3.64.14v2.31c0,2.29-1.58,4.28-3.81,4.82l-11.05,2.63c-11.16,2.66-22.65,3.71-34.11,3.1-1.31-.07-2.49-.65-3.33-1.54-.84-.89-1.36-2.08-1.36-3.4-1.6.77-3.14,1.62-4.62,2.57-.71.4-1.21,1.03-1.46,1.74-.36,1.03-.04,2.2.69,3.01Z"/>
  <ellipse class="cls-7" cx="173.25" cy="202.69" rx="2.73" ry="4.24"/>
  <ellipse class="cls-7" cx="96.23" cy="216.7" rx="1.93" ry="3"/>
  <path class="cls-10" d="m292.18,213.15c-9.33,2.4-21.54,7.15-25.31,16.87-1.23,3.5-.8,7.59,1.27,10.7,2,3.14,6.19,5.79,9.91,3.92,3.51-1.72,5.51-5.31,6.05-8.82.67-3.42.5-7.85-2.77-9.96-1.44-1-3.35-1.37-5.08-1.45-1.52-.14-3.64.19-5.15.42,4.54-.34,11.25.14,11.83,5.84,1.08,7.85-6.57,18.33-13.12,8.95-7.55-13.37,12.3-22.71,22.37-26.47h0Z"/>
</svg>