<?xml version="1.0" encoding="UTF-8"?>
<svg id="Layer_2" data-name="Layer 2" xmlns="http://www.w3.org/2000/svg" viewBox="0 0 379.69 55.73">
  <defs>
    <style>
      .cls-1 {
        fill: #fff;
      }
    </style>
  </defs>
  <g id="Layer_1-2" data-name="Layer 1">
    <g>
      <path class="cls-1" d="m0,49.81l4.02-8.92c4.31,3.14,10.75,5.34,16.89,5.34,7.02,0,9.87-2.34,9.87-5.49,0-9.58-29.77-3-29.77-22.01C1.02,10.02,8.04,2.78,22.6,2.78c6.44,0,13.02,1.54,17.77,4.53l-3.66,9c-4.75-2.71-9.65-4.02-14.19-4.02-7.02,0-9.73,2.63-9.73,5.85,0,9.43,29.77,2.93,29.77,21.72,0,8.56-7.09,15.87-21.72,15.87-8.12,0-16.31-2.41-20.84-5.92Z"/>
      <path class="cls-1" d="m52.8,35.18c0-11.85,9.14-20.26,21.94-20.26,8.26,0,14.77,3.58,17.62,10.02l-8.85,4.75c-2.12-3.73-5.27-5.41-8.85-5.41-5.78,0-10.31,4.02-10.31,10.9s4.53,10.9,10.31,10.9c3.58,0,6.73-1.61,8.85-5.41l8.85,4.83c-2.85,6.29-9.36,9.95-17.62,9.95-12.8,0-21.94-8.41-21.94-20.26Z"/>
      <path class="cls-1" d="m144.73,32.33v22.53h-11.41v-20.77c0-6.36-2.93-9.29-7.97-9.29-5.49,0-9.43,3.36-9.43,10.6v19.45h-11.41V.58h11.41v19.02c3.07-3.07,7.46-4.68,12.51-4.68,9.29,0,16.31,5.41,16.31,17.41Z"/>
      <path class="cls-1" d="m195.7,32.4v22.45h-10.68v-4.9c-2.12,3.58-6.22,5.49-11.99,5.49-9.21,0-14.7-5.12-14.7-11.92s4.9-11.77,16.89-11.77h9.07c0-4.9-2.92-7.75-9.07-7.75-4.17,0-8.48,1.39-11.34,3.66l-4.1-7.97c4.31-3.07,10.68-4.75,16.97-4.75,11.99,0,18.94,5.56,18.94,17.48Zm-11.41,10.02v-4.02h-7.83c-5.34,0-7.02,1.97-7.02,4.61,0,2.85,2.41,4.75,6.44,4.75,3.8,0,7.09-1.76,8.41-5.34Z"/>
      <path class="cls-1" d="m224.36,16.38h10.09v8.78h-9.8v29.69h-11.41v-29.69h-6.07v-8.78h6.07v-1.76c0-8.85,5.41-14.63,15.21-14.63,3.22,0,6.58.66,8.7,2.12l-3,8.26c-1.24-.88-2.85-1.39-4.61-1.39-3.36,0-5.19,1.83-5.19,5.7v1.68Z"/>
      <path class="cls-1" d="m258.51,16.38h10.09v8.78h-9.8v29.69h-11.41v-29.69h-6.07v-8.78h6.07v-1.76c0-8.85,5.41-14.63,15.21-14.63,3.22,0,6.58.66,8.7,2.12l-3,8.26c-1.24-.88-2.85-1.39-4.61-1.39-3.36,0-5.19,1.83-5.19,5.7v1.68Z"/>
      <path class="cls-1" d="m317.97,38.4h-29.77c1.1,4.9,5.27,7.9,11.26,7.9,4.17,0,7.17-1.24,9.87-3.8l6.07,6.58c-3.66,4.17-9.14,6.36-16.24,6.36-13.6,0-22.45-8.56-22.45-20.26s9-20.26,20.99-20.26,20.48,7.75,20.48,20.4c0,.88-.15,2.12-.22,3.07Zm-29.91-6.66h19.38c-.8-4.97-4.54-8.19-9.65-8.19s-8.92,3.14-9.73,8.19Z"/>
      <path class="cls-1" d="m356.07,14.92v10.53c-.95-.07-1.68-.15-2.56-.15-6.29,0-10.46,3.44-10.46,10.97v18.58h-11.41V15.5h10.9v5.19c2.78-3.8,7.46-5.78,13.53-5.78Z"/>
      <path class="cls-1" d="m365.5,48.27c0-4.24,3.15-7.02,7.09-7.02s7.09,2.78,7.09,7.02-3.14,7.17-7.09,7.17-7.09-3-7.09-7.17Z"/>
    </g>
  </g>
</svg>